<svg width="12" height="13" viewBox="0 0 12 13" fill="none" xmlns="http://www.w3.org/2000/svg">
<g id="instagram 1" clip-path="url(#clip0_3179_2187)">
<g id="Group">
<g id="Group_2">
<path id="Vector" d="M8.25 0H3.75C1.67925 0 0 1.74138 0 3.88875V8.55524C0 10.7026 1.67925 12.444 3.75 12.444H8.25C10.3208 12.444 12 10.7026 12 8.55524V3.88875C12 1.74138 10.3208 0 8.25 0ZM10.875 8.55524C10.875 10.0563 9.6975 11.2774 8.25 11.2774H3.75C2.3025 11.2774 1.125 10.0563 1.125 8.55524V3.88875C1.125 2.38769 2.3025 1.16662 3.75 1.16662H8.25C9.6975 1.16662 10.875 2.38769 10.875 3.88875V8.55524Z" fill="white"/>
</g>
</g>
<g id="Group_3">
<g id="Group_4">
<path id="Vector_2" d="M6 3.11102C4.34325 3.11102 3 4.50397 3 6.22202C3 7.94007 4.34325 9.33302 6 9.33302C7.65675 9.33302 9 7.94007 9 6.22202C9 4.50397 7.65675 3.11102 6 3.11102ZM6 8.16639C4.9665 8.16639 4.125 7.29376 4.125 6.22202C4.125 5.1495 4.9665 4.27765 6 4.27765C7.0335 4.27765 7.875 5.1495 7.875 6.22202C7.875 7.29376 7.0335 8.16639 6 8.16639Z" fill="white"/>
</g>
</g>
<g id="Group_5">
<g id="Group_6">
<path id="Vector_3" d="M9.22495 3.29221C9.44572 3.29221 9.6247 3.10662 9.6247 2.87767C9.6247 2.64873 9.44572 2.46313 9.22495 2.46313C9.00417 2.46313 8.8252 2.64873 8.8252 2.87767C8.8252 3.10662 9.00417 3.29221 9.22495 3.29221Z" fill="white"/>
</g>
</g>
</g>
<defs>
<clipPath id="clip0_3179_2187">
<rect width="12" height="12.444" fill="white"/>
</clipPath>
</defs>
</svg>
