<svg width="16" height="16" viewBox="0 0 16 16" fill="none" xmlns="http://www.w3.org/2000/svg">
<g id="linkedin 1">
<g id="Group">
<g id="Group_2">
<path id="Vector" d="M3.76544 2.42993C4.49826 2.43053 5.10265 3.0358 5.10107 3.77226C5.09931 4.54342 4.45936 5.12464 3.75641 5.10789C3.04343 5.12232 2.41685 4.52681 2.41699 3.76717C2.41699 3.03043 3.02374 2.42937 3.76544 2.42993Z" fill="white"/>
<path id="Vector_2" d="M4.54402 13.5682H2.97394C2.77017 13.5682 2.60498 13.4031 2.60498 13.1993V6.50125C2.60498 6.29748 2.77017 6.13229 2.97394 6.13229H4.54402C4.74779 6.13229 4.91298 6.29748 4.91298 6.50125V13.1993C4.91294 13.4031 4.74779 13.5682 4.54402 13.5682Z" fill="white"/>
<path id="Vector_3" d="M13.5829 8.48491C13.5829 7.08071 12.4445 5.94235 11.0403 5.94235H10.6376C9.86936 5.94235 9.19065 6.32567 8.78241 6.91156C8.73789 6.97542 8.69667 7.04174 8.65882 7.1102C8.64573 7.10823 8.63797 7.10722 8.63779 7.10757V6.2854C8.63779 6.20082 8.56923 6.13222 8.48462 6.13222H6.52574C6.44116 6.13222 6.37256 6.20079 6.37256 6.2854V13.4151C6.37256 13.4997 6.44109 13.5683 6.52567 13.5683L8.52724 13.5688C8.61185 13.5688 8.68045 13.5002 8.68045 13.4156V9.29658C8.68045 8.58458 9.24833 7.99339 9.9603 7.98535C10.3237 7.98124 10.6532 8.12687 10.8907 8.36448C11.1251 8.59869 11.2699 8.92253 11.2699 9.28008V13.4161C11.2699 13.5007 11.3385 13.5693 11.4231 13.5693L13.4296 13.5698C13.5142 13.5698 13.5828 13.5012 13.5828 13.4166V8.48491H13.5829Z" fill="white"/>
</g>
</g>
</g>
</svg>
