<svg width="14" height="14" viewBox="0 0 14 14" fill="none" xmlns="http://www.w3.org/2000/svg">
<g id="youtube">
<path id="Vector" d="M13.4166 5.66416C13.4454 4.82921 13.2629 4.0005 12.8858 3.25499C12.6299 2.94909 12.2749 2.74265 11.8824 2.67166C10.2593 2.52438 8.62949 2.46402 6.99993 2.49082C5.37631 2.4628 3.75235 2.52122 2.13493 2.66582C1.81516 2.72399 1.51924 2.87398 1.28327 3.09749C0.758268 3.58166 0.699934 4.40999 0.641601 5.10999C0.556966 6.36857 0.556966 7.63141 0.641601 8.88999C0.658477 9.28398 0.717139 9.67506 0.816601 10.0567C0.886936 10.3513 1.02924 10.6239 1.23077 10.85C1.46834 11.0853 1.77116 11.2439 2.09993 11.305C3.35755 11.4602 4.62473 11.5246 5.8916 11.4975C7.93327 11.5267 9.7241 11.4975 11.8416 11.3342C12.1784 11.2768 12.4898 11.1181 12.7341 10.8792C12.8974 10.7158 13.0194 10.5158 13.0899 10.2958C13.2986 9.65568 13.401 8.98572 13.3933 8.31249C13.4166 7.98582 13.4166 6.01416 13.4166 5.66416ZM5.6816 8.66249V5.05166L9.13493 6.86582C8.1666 7.40249 6.8891 8.00916 5.6816 8.66249Z" fill="white"/>
</g>
</svg>
